<?xml version="1.0" encoding="UTF-8" standalone="no"?>
<!-- Created with Inkscape (http://www.inkscape.org/) -->

<svg
   xmlns:dc="http://purl.org/dc/elements/1.1/"
   xmlns:cc="http://creativecommons.org/ns#"
   xmlns:rdf="http://www.w3.org/1999/02/22-rdf-syntax-ns#"
   xmlns:svg="http://www.w3.org/2000/svg"
   xmlns="http://www.w3.org/2000/svg"
   xmlns:sodipodi="http://sodipodi.sourceforge.net/DTD/sodipodi-0.dtd"
   xmlns:inkscape="http://www.inkscape.org/namespaces/inkscape"
   width="100"
   height="100"
   viewBox="0 0 26.458333 26.458332"
   version="1.1"
   id="svg8"
   inkscape:version="0.92.3 (2405546, 2018-03-11)"
   sodipodi:docname="middelvind.svg">
  <defs
     id="defs2" />
  <sodipodi:namedview
     id="base"
     pagecolor="#ffffff"
     bordercolor="#666666"
     borderopacity="1.0"
     inkscape:pageopacity="0.0"
     inkscape:pageshadow="2"
     inkscape:zoom="2.8"
     inkscape:cx="94.396107"
     inkscape:cy="39.59705"
     inkscape:document-units="mm"
     inkscape:current-layer="layer1"
     showgrid="true"
     inkscape:snap-grids="false"
     units="px"
     inkscape:window-width="1428"
     inkscape:window-height="1043"
     inkscape:window-x="85"
     inkscape:window-y="27"
     inkscape:window-maximized="0">
    <inkscape:grid
       type="xygrid"
       id="grid3713"
       empspacing="5"
       spacingx="1.3229166"
       spacingy="1.3229166" />
  </sodipodi:namedview>
  <metadata
     id="metadata5">
    <rdf:RDF>
      <cc:Work
         rdf:about="">
        <dc:format>image/svg+xml</dc:format>
        <dc:type
           rdf:resource="http://purl.org/dc/dcmitype/StillImage" />
        <dc:title></dc:title>
      </cc:Work>
    </rdf:RDF>
  </metadata>
  <g
     inkscape:groupmode="layer"
     id="layer2"
     inkscape:label="triangle"
     sodipodi:insensitive="true"
     style="display:inline">
    <path
       transform="translate(0,-270.54167)"
       style="fill:none;fill-rule:evenodd;stroke:#000000;stroke-width:1.32291663;stroke-linecap:butt;stroke-linejoin:miter;stroke-miterlimit:4;stroke-dasharray:none;stroke-opacity:1"
       d="m 1.3229166,294.35417 c 3.9687498,-7.05556 7.9374996,-14.11111 11.9062494,-21.16667 3.96875,7.05556 7.937499,14.11111 11.906249,21.16667 -7.937499,0 -15.8749989,0 -23.8124984,0 z"
       id="path3715"
       inkscape:connector-curvature="0" />
  </g>
  <g
     inkscape:label="Motif"
     inkscape:groupmode="layer"
     id="layer1"
     transform="translate(0,-270.54166)">
    <path
       style="color:#000000;font-style:normal;font-variant:normal;font-weight:normal;font-stretch:normal;font-size:medium;line-height:normal;font-family:sans-serif;font-variant-ligatures:normal;font-variant-position:normal;font-variant-caps:normal;font-variant-numeric:normal;font-variant-alternates:normal;font-feature-settings:normal;text-indent:0;text-align:start;text-decoration:none;text-decoration-line:none;text-decoration-style:solid;text-decoration-color:#000000;letter-spacing:normal;word-spacing:normal;text-transform:none;writing-mode:lr-tb;direction:ltr;text-orientation:mixed;dominant-baseline:auto;baseline-shift:baseline;text-anchor:start;white-space:normal;shape-padding:0;clip-rule:nonzero;display:inline;overflow:visible;visibility:visible;opacity:1;isolation:auto;mix-blend-mode:normal;color-interpolation:sRGB;color-interpolation-filters:linearRGB;solid-color:#000000;solid-opacity:1;vector-effect:none;fill:#000000;fill-opacity:1;fill-rule:evenodd;stroke:none;stroke-width:1;stroke-linecap:butt;stroke-linejoin:miter;stroke-miterlimit:4;stroke-dasharray:none;stroke-dashoffset:0;stroke-opacity:1;color-rendering:auto;image-rendering:auto;shape-rendering:auto;text-rendering:auto;enable-background:accumulate"
       d="m 8.8476562,283.04688 -1.5722656,9.10742 0.4824219,0.0918 1.2207031,0.23243 1.2167964,-9.16797 z"
       id="path1055"
       inkscape:connector-curvature="0" />
    <path
       style="color:#000000;font-style:normal;font-variant:normal;font-weight:normal;font-stretch:normal;font-size:medium;line-height:normal;font-family:sans-serif;font-variant-ligatures:normal;font-variant-position:normal;font-variant-caps:normal;font-variant-numeric:normal;font-variant-alternates:normal;font-feature-settings:normal;text-indent:0;text-align:start;text-decoration:none;text-decoration-line:none;text-decoration-style:solid;text-decoration-color:#000000;letter-spacing:normal;word-spacing:normal;text-transform:none;writing-mode:lr-tb;direction:ltr;text-orientation:mixed;dominant-baseline:auto;baseline-shift:baseline;text-anchor:start;white-space:normal;shape-padding:0;clip-rule:nonzero;display:inline;overflow:visible;visibility:visible;opacity:1;isolation:auto;mix-blend-mode:normal;color-interpolation:sRGB;color-interpolation-filters:linearRGB;solid-color:#000000;solid-opacity:1;vector-effect:none;fill:#000000;fill-opacity:1;fill-rule:evenodd;stroke:none;stroke-width:1;stroke-linecap:butt;stroke-linejoin:miter;stroke-miterlimit:4;stroke-dasharray:none;stroke-dashoffset:0;stroke-opacity:1;color-rendering:auto;image-rendering:auto;shape-rendering:auto;text-rendering:auto;enable-background:accumulate"
       d="m 13.435547,281.78516 -4.5546876,1.28515 0.15625,0.49024 1.0468746,3.32617 7.324219,2.9082 0.230469,-0.20508 c 0,0 0.210305,-0.18705 0.449219,-0.44336 0.238913,-0.2563 0.515648,-0.56739 0.677734,-0.94921 0.1468,-0.34582 0.223905,-0.75494 0.283203,-1.10352 0.0593,-0.34858 0.08984,-0.63086 0.08984,-0.63086 l 0.03125,-0.2793 z m -0.210938,1.09765 4.88086,3.7461 c -0.01354,0.10358 -0.01299,0.13211 -0.04102,0.29687 -0.05386,0.31661 -0.145243,0.7031 -0.220703,0.88086 -0.06017,0.14175 -0.283308,0.43831 -0.488281,0.6582 -0.09063,0.0972 -0.102972,0.10127 -0.169922,0.16602 l -6.289063,-2.49805 -0.75,-2.38086 z"
       id="path1057"
       inkscape:connector-curvature="0" />
    <path
       style="color:#000000;font-style:normal;font-variant:normal;font-weight:normal;font-stretch:normal;font-size:medium;line-height:normal;font-family:sans-serif;font-variant-ligatures:normal;font-variant-position:normal;font-variant-caps:normal;font-variant-numeric:normal;font-variant-alternates:normal;font-feature-settings:normal;text-indent:0;text-align:start;text-decoration:none;text-decoration-line:none;text-decoration-style:solid;text-decoration-color:#000000;letter-spacing:normal;word-spacing:normal;text-transform:none;writing-mode:lr-tb;direction:ltr;text-orientation:mixed;dominant-baseline:auto;baseline-shift:baseline;text-anchor:start;white-space:normal;shape-padding:0;clip-rule:nonzero;display:inline;overflow:visible;visibility:visible;opacity:1;isolation:auto;mix-blend-mode:normal;color-interpolation:sRGB;color-interpolation-filters:linearRGB;solid-color:#000000;solid-opacity:1;vector-effect:none;fill:#000000;fill-opacity:1;fill-rule:evenodd;stroke:none;stroke-width:1;stroke-linecap:butt;stroke-linejoin:miter;stroke-miterlimit:4;stroke-dasharray:none;stroke-dashoffset:0;stroke-opacity:1;color-rendering:auto;image-rendering:auto;shape-rendering:auto;text-rendering:auto;enable-background:accumulate"
       d="m 13.341797,281.71094 -0.302735,0.21679 c 0,0 -0.410365,0.29336 -0.882812,0.68165 -0.472447,0.38828 -1.003924,0.84424 -1.316406,1.32226 -0.30285,0.46328 -0.488534,1.05979 -0.626953,1.56641 -0.13842,0.50661 -0.2148441,0.91992 -0.2148441,0.91992 l 0.9843751,0.18359 c 0,0 0.06856,-0.37595 0.195312,-0.83984 0.126748,-0.4639 0.326717,-1.01813 0.5,-1.2832 0.163651,-0.25035 0.669093,-0.73064 1.113282,-1.09571 0.289289,-0.23775 0.391467,-0.3071 0.541015,-0.41797 l 1.021485,0.78907 c -0.04802,0.0306 -0.04326,0.0232 -0.09375,0.0566 -0.397099,0.26268 -0.854259,0.58452 -1.16211,0.99609 -0.315886,0.42231 -0.507914,0.99478 -0.666015,1.49805 -0.158101,0.50327 -0.25586,0.92578 -0.25586,0.92578 l -0.09961,0.41992 2.685547,1.06445 0.152343,-0.53125 c 0,0 0.07857,-0.27811 0.205079,-0.61914 0.126512,-0.34103 0.31489,-0.74743 0.445312,-0.91797 0.121564,-0.15895 0.520283,-0.49608 0.865235,-0.74609 0.194883,-0.14124 0.241976,-0.16927 0.361328,-0.24805 l 0.679687,0.50977 c -0.01624,0.0124 -0.01481,0.009 -0.03125,0.0215 -0.330992,0.25668 -0.715425,0.56129 -0.923828,1.02344 -0.243271,0.53948 -0.08182,1.04778 0.04687,1.46875 0.128694,0.42097 0.292969,0.75781 0.292969,0.75781 l 0.90039,-0.43554 c 0,0 -0.133186,-0.27785 -0.236328,-0.61524 -0.103141,-0.33738 -0.107693,-0.73037 -0.0918,-0.76562 0.05076,-0.11258 0.342306,-0.42683 0.623047,-0.64453 0.280741,-0.21771 0.533203,-0.36914 0.533203,-0.36914 l 0.634766,-0.38477 -2.390625,-1.78516 -0.291016,0.1836 c 0,0 -0.32168,0.20186 -0.695312,0.47265 -0.373633,0.2708 -0.794113,0.58552 -1.072266,0.94922 -0.269295,0.35212 -0.446836,0.79751 -0.58789,1.17774 -0.03458,0.0932 -0.02889,0.0884 -0.05664,0.16992 l -0.861328,-0.33984 c 0.04114,-0.15692 0.04756,-0.20308 0.123047,-0.44336 0.145685,-0.46375 0.372318,-1.0109 0.511719,-1.19727 0.147435,-0.19711 0.556357,-0.5251 0.914062,-0.76172 0.357705,-0.23662 0.660156,-0.40039 0.660156,-0.40039 l 0.675782,-0.36719 z"
       id="path1063"
       inkscape:connector-curvature="0" />
  </g>
</svg>
