<?xml version="1.0" encoding="UTF-8" standalone="no"?>
<!-- Created with Inkscape (http://www.inkscape.org/) -->

<svg
   xmlns:dc="http://purl.org/dc/elements/1.1/"
   xmlns:cc="http://creativecommons.org/ns#"
   xmlns:rdf="http://www.w3.org/1999/02/22-rdf-syntax-ns#"
   xmlns:svg="http://www.w3.org/2000/svg"
   xmlns="http://www.w3.org/2000/svg"
   xmlns:sodipodi="http://sodipodi.sourceforge.net/DTD/sodipodi-0.dtd"
   xmlns:inkscape="http://www.inkscape.org/namespaces/inkscape"
   width="100"
   height="100"
   viewBox="0 0 26.458333 26.458332"
   version="1.1"
   id="svg8"
   inkscape:version="0.92.3 (2405546, 2018-03-11)"
   sodipodi:docname="turbulens.svg">
  <defs
     id="defs2" />
  <sodipodi:namedview
     id="base"
     pagecolor="#ffffff"
     bordercolor="#666666"
     borderopacity="1.0"
     inkscape:pageopacity="0.0"
     inkscape:pageshadow="2"
     inkscape:zoom="3.959798"
     inkscape:cx="81.902046"
     inkscape:cy="13.953766"
     inkscape:document-units="mm"
     inkscape:current-layer="layer1"
     showgrid="true"
     inkscape:snap-grids="false"
     units="px"
     inkscape:window-width="1428"
     inkscape:window-height="1043"
     inkscape:window-x="1008"
     inkscape:window-y="135"
     inkscape:window-maximized="0">
    <inkscape:grid
       type="xygrid"
       id="grid3713"
       empspacing="5"
       spacingx="1.3229166"
       spacingy="1.3229166" />
  </sodipodi:namedview>
  <metadata
     id="metadata5">
    <rdf:RDF>
      <cc:Work
         rdf:about="">
        <dc:format>image/svg+xml</dc:format>
        <dc:type
           rdf:resource="http://purl.org/dc/dcmitype/StillImage" />
        <dc:title></dc:title>
      </cc:Work>
    </rdf:RDF>
  </metadata>
  <g
     inkscape:groupmode="layer"
     id="layer2"
     inkscape:label="triangle"
     sodipodi:insensitive="true"
     style="display:inline">
    <path
       transform="translate(0,-270.54167)"
       style="fill:none;fill-rule:evenodd;stroke:#000000;stroke-width:1.32291663;stroke-linecap:butt;stroke-linejoin:miter;stroke-miterlimit:4;stroke-dasharray:none;stroke-opacity:1"
       d="m 1.3229166,294.35417 c 3.9687498,-7.05556 7.9374996,-14.11111 11.9062494,-21.16667 3.96875,7.05556 7.937499,14.11111 11.906249,21.16667 -7.937499,0 -15.8749989,0 -23.8124984,0 z"
       id="path3715"
       inkscape:connector-curvature="0" />
  </g>
  <g
     inkscape:label="Motif"
     inkscape:groupmode="layer"
     id="layer1"
     transform="translate(0,-270.54166)">
    <path
       style="color:#000000;font-style:normal;font-variant:normal;font-weight:normal;font-stretch:normal;font-size:medium;line-height:normal;font-family:sans-serif;font-variant-ligatures:normal;font-variant-position:normal;font-variant-caps:normal;font-variant-numeric:normal;font-variant-alternates:normal;font-feature-settings:normal;text-indent:0;text-align:start;text-decoration:none;text-decoration-line:none;text-decoration-style:solid;text-decoration-color:#000000;letter-spacing:normal;word-spacing:normal;text-transform:none;writing-mode:lr-tb;direction:ltr;text-orientation:mixed;dominant-baseline:auto;baseline-shift:baseline;text-anchor:start;white-space:normal;shape-padding:0;clip-rule:nonzero;display:inline;overflow:visible;visibility:visible;opacity:1;isolation:auto;mix-blend-mode:normal;color-interpolation:sRGB;color-interpolation-filters:linearRGB;solid-color:#000000;solid-opacity:1;vector-effect:none;fill:#000000;fill-opacity:1;fill-rule:evenodd;stroke:none;stroke-width:1.5;stroke-linecap:butt;stroke-linejoin:miter;stroke-miterlimit:4;stroke-dasharray:none;stroke-dashoffset:0;stroke-opacity:1;color-rendering:auto;image-rendering:auto;shape-rendering:auto;text-rendering:auto;enable-background:accumulate"
       d="m 11.890625,286.14648 -3.0429688,4.8125 H 6.6152344 v 1.5 h 3.0585937 l 2.2226559,-3.51562 2.244141,3.51562 h 5.703125 v -1.5 h -4.880859 z"
       id="path823"
       inkscape:connector-curvature="0" />
    <path
       style="color:#000000;font-style:normal;font-variant:normal;font-weight:normal;font-stretch:normal;font-size:medium;line-height:normal;font-family:sans-serif;font-variant-ligatures:normal;font-variant-position:normal;font-variant-caps:normal;font-variant-numeric:normal;font-variant-alternates:normal;font-feature-settings:normal;text-indent:0;text-align:start;text-decoration:none;text-decoration-line:none;text-decoration-style:solid;text-decoration-color:#000000;letter-spacing:normal;word-spacing:normal;text-transform:none;writing-mode:lr-tb;direction:ltr;text-orientation:mixed;dominant-baseline:auto;baseline-shift:baseline;text-anchor:start;white-space:normal;shape-padding:0;clip-rule:nonzero;display:inline;overflow:visible;visibility:visible;opacity:1;isolation:auto;mix-blend-mode:normal;color-interpolation:sRGB;color-interpolation-filters:linearRGB;solid-color:#000000;solid-opacity:1;vector-effect:none;fill:#000000;fill-opacity:1;fill-rule:evenodd;stroke:none;stroke-width:1.5;stroke-linecap:round;stroke-linejoin:round;stroke-miterlimit:4;stroke-dasharray:none;stroke-dashoffset:0;stroke-opacity:1;color-rendering:auto;image-rendering:auto;shape-rendering:auto;text-rendering:auto;enable-background:accumulate"
       d="m 15.222656,282.95312 c -1.040698,-0.21946 -2.260409,-0.0895 -3.285156,0.25782 -0.613515,0.20794 -1.194293,0.60562 -1.683594,0.95703 -0.4792964,0.34423 -0.8308517,0.63797 -0.8457029,0.65039 l -0.00781,0.006 c -9.8e-5,8e-5 -0.00977,0.008 -0.00977,0.008 l -1.8027344,1.42383 a 0.750075,0.750075 0 1 0 0.9277344,1.17578 l 1.820313,-1.43555 a 0.750075,0.750075 0 0 0 0.01758,-0.0137 c 0,0 0.334747,-0.27923 0.77539,-0.5957 0.440643,-0.31647 1.011954,-0.66194 1.289063,-0.75586 0.756501,-0.2564 1.845659,-0.34769 2.49414,-0.21094 0.735181,0.15504 1.27658,0.44649 1.572266,0.81836 0.28644,0.36024 0.430563,1.07173 0.382813,1.33984 -0.0034,0.0192 -0.113534,0.23905 -0.257813,0.4004 -0.08886,0.0994 -0.117105,0.11891 -0.167969,0.16406 -0.07542,0.0179 -0.107923,0.0275 -0.234375,0.0508 -0.220395,0.0406 -0.53399,0.0278 -0.416015,0.0527 -0.183247,-0.0387 -0.225756,-0.083 -0.267578,-0.14062 0.08297,0.11434 0.0095,-0.003 -0.0059,-0.10742 -0.01295,-0.0882 -0.01474,-0.13931 -0.01563,-0.16016 l 0.04297,-0.35937 a 0.750075,0.750075 0 1 0 -1.490234,-0.17188 l -0.05078,0.43359 A 0.750075,0.750075 0 0 0 14,286.8457 c 0,0 0.0036,0.16745 0.0332,0.36914 0.02962,0.2017 0.04003,0.44444 0.277344,0.77149 0.266873,0.36778 0.694895,0.62625 1.169922,0.72656 0.447111,0.0944 0.716075,0.007 0.998047,-0.0449 0.281972,-0.0519 0.515625,-0.11328 0.515625,-0.11328 a 0.750075,0.750075 0 0 0 0.279297,-0.14063 c 0,0 0.221241,-0.17623 0.453124,-0.43554 0.231884,-0.25932 0.523596,-0.60022 0.619141,-1.13672 0.150195,-0.84334 -0.08399,-1.77811 -0.6875,-2.53711 -0.594262,-0.74737 -1.481547,-1.15038 -2.435547,-1.35157 z"
       id="path818"
       inkscape:connector-curvature="0" />
  </g>
</svg>
