<?xml version="1.0" encoding="UTF-8" standalone="no"?>
<!-- Created with Inkscape (http://www.inkscape.org/) -->

<svg
   xmlns:dc="http://purl.org/dc/elements/1.1/"
   xmlns:cc="http://creativecommons.org/ns#"
   xmlns:rdf="http://www.w3.org/1999/02/22-rdf-syntax-ns#"
   xmlns:svg="http://www.w3.org/2000/svg"
   xmlns="http://www.w3.org/2000/svg"
   xmlns:sodipodi="http://sodipodi.sourceforge.net/DTD/sodipodi-0.dtd"
   xmlns:inkscape="http://www.inkscape.org/namespaces/inkscape"
   width="100"
   height="100"
   viewBox="0 0 26.458333 26.458332"
   version="1.1"
   id="svg8"
   inkscape:version="0.92.3 (2405546, 2018-03-11)"
   sodipodi:docname="vindkast.svg">
  <defs
     id="defs2" />
  <sodipodi:namedview
     id="base"
     pagecolor="#ffffff"
     bordercolor="#666666"
     borderopacity="1.0"
     inkscape:pageopacity="0.0"
     inkscape:pageshadow="2"
     inkscape:zoom="7.9195959"
     inkscape:cx="30.267519"
     inkscape:cy="59.012737"
     inkscape:document-units="mm"
     inkscape:current-layer="layer1"
     showgrid="true"
     inkscape:snap-grids="false"
     units="px"
     inkscape:window-width="1428"
     inkscape:window-height="1043"
     inkscape:window-x="85"
     inkscape:window-y="27"
     inkscape:window-maximized="0">
    <inkscape:grid
       type="xygrid"
       id="grid3713"
       empspacing="5"
       spacingx="1.3229166"
       spacingy="1.3229166" />
  </sodipodi:namedview>
  <metadata
     id="metadata5">
    <rdf:RDF>
      <cc:Work
         rdf:about="">
        <dc:format>image/svg+xml</dc:format>
        <dc:type
           rdf:resource="http://purl.org/dc/dcmitype/StillImage" />
        <dc:title></dc:title>
      </cc:Work>
    </rdf:RDF>
  </metadata>
  <g
     inkscape:groupmode="layer"
     id="layer2"
     inkscape:label="triangle"
     sodipodi:insensitive="true"
     style="display:inline">
    <path
       transform="translate(0,-270.54167)"
       style="fill:none;fill-rule:evenodd;stroke:#000000;stroke-width:1.32291663;stroke-linecap:butt;stroke-linejoin:miter;stroke-miterlimit:4;stroke-dasharray:none;stroke-opacity:1"
       d="m 1.3229166,294.35417 c 3.9687498,-7.05556 7.9374996,-14.11111 11.9062494,-21.16667 3.96875,7.05556 7.937499,14.11111 11.906249,21.16667 -7.937499,0 -15.8749989,0 -23.8124984,0 z"
       id="path3715"
       inkscape:connector-curvature="0" />
  </g>
  <g
     inkscape:label="Motif"
     inkscape:groupmode="layer"
     id="layer1"
     transform="translate(0,-270.54166)">
    <g
       id="g879">
      <path
         style="color:#000000;font-style:normal;font-variant:normal;font-weight:normal;font-stretch:normal;font-size:medium;line-height:normal;font-family:sans-serif;font-variant-ligatures:normal;font-variant-position:normal;font-variant-caps:normal;font-variant-numeric:normal;font-variant-alternates:normal;font-feature-settings:normal;text-indent:0;text-align:start;text-decoration:none;text-decoration-line:none;text-decoration-style:solid;text-decoration-color:#000000;letter-spacing:normal;word-spacing:normal;text-transform:none;writing-mode:lr-tb;direction:ltr;text-orientation:mixed;dominant-baseline:auto;baseline-shift:baseline;text-anchor:start;white-space:normal;shape-padding:0;clip-rule:nonzero;display:inline;overflow:visible;visibility:visible;opacity:1;isolation:auto;mix-blend-mode:normal;color-interpolation:sRGB;color-interpolation-filters:linearRGB;solid-color:#000000;solid-opacity:1;vector-effect:none;fill:#000000;fill-opacity:1;fill-rule:evenodd;stroke:none;stroke-width:1.5;stroke-linecap:round;stroke-linejoin:miter;stroke-miterlimit:4;stroke-dasharray:none;stroke-dashoffset:0;stroke-opacity:1;color-rendering:auto;image-rendering:auto;shape-rendering:auto;text-rendering:auto;enable-background:accumulate"
         d="m 14.041016,278.99805 c -0.408972,-0.0368 -0.812669,0.0253 -1.16211,0.13867 -0.802758,0.26051 -1.428485,0.92206 -1.689453,1.76758 -0.114098,0.36967 -0.156425,0.66624 -0.164062,0.88867 -0.0076,0.22243 0.03711,0.43555 0.03711,0.43555 a 0.750075,0.750075 0 1 0 1.455078,-0.36329 c 0,0 0.005,0.0636 0.0078,-0.0195 0.0029,-0.0832 0.01986,-0.24796 0.09766,-0.5 0.122814,-0.3979 0.427782,-0.68877 0.71875,-0.7832 0.394846,-0.12814 0.717288,-0.12147 0.996094,0.0879 0.362442,0.27216 0.69346,0.68316 0.669921,1.43164 -0.01105,0.35138 -0.08719,0.45215 -0.18164,0.54883 -0.09445,0.0967 -0.262019,0.18627 -0.494141,0.2793 -0.0014,5.6e-4 -0.321643,0.065 -0.572265,0.082 -0.250622,0.017 -0.458985,0.0176 -0.458985,0.0176 h -0.002 l -4.0410155,0.0117 a 0.750075,0.750075 0 1 0 0.00391,1.5 l 4.0371095,-0.0117 c 0,0 0.254424,-6e-4 0.5625,-0.0215 0.308077,-0.0209 0.643295,-0.0325 1.029297,-0.1875 0.273213,-0.10949 0.663604,-0.26877 1.007813,-0.62109 0.344208,-0.35233 0.586973,-0.90053 0.607421,-1.55078 0.03946,-1.25478 -0.603592,-2.17914 -1.267578,-2.67774 -0.373811,-0.2807 -0.788293,-0.41633 -1.197265,-0.45312 z"
         id="path868"
         inkscape:connector-curvature="0" />
      <path
         style="color:#000000;font-style:normal;font-variant:normal;font-weight:normal;font-stretch:normal;font-size:medium;line-height:normal;font-family:sans-serif;font-variant-ligatures:normal;font-variant-position:normal;font-variant-caps:normal;font-variant-numeric:normal;font-variant-alternates:normal;font-feature-settings:normal;text-indent:0;text-align:start;text-decoration:none;text-decoration-line:none;text-decoration-style:solid;text-decoration-color:#000000;letter-spacing:normal;word-spacing:normal;text-transform:none;writing-mode:lr-tb;direction:ltr;text-orientation:mixed;dominant-baseline:auto;baseline-shift:baseline;text-anchor:start;white-space:normal;shape-padding:0;clip-rule:nonzero;display:inline;overflow:visible;visibility:visible;opacity:1;isolation:auto;mix-blend-mode:normal;color-interpolation:sRGB;color-interpolation-filters:linearRGB;solid-color:#000000;solid-opacity:1;vector-effect:none;fill:#000000;fill-opacity:1;fill-rule:evenodd;stroke:none;stroke-width:1.5;stroke-linecap:round;stroke-linejoin:miter;stroke-miterlimit:4;stroke-dasharray:none;stroke-dashoffset:0;stroke-opacity:1;color-rendering:auto;image-rendering:auto;shape-rendering:auto;text-rendering:auto;enable-background:accumulate"
         d="m 12.300781,285.66016 c -2.196322,10e-4 -4.3652341,0.006 -4.3652341,0.006 a 0.750075,0.750075 0 1 0 0.00391,1.5 c 0,0 2.1663521,-0.004 4.3613281,-0.006 1.097489,-7.2e-4 2.201899,2.9e-4 3.044922,0.002 0.421512,8.3e-4 0.779013,0.002 1.035156,0.004 0.128072,8.7e-4 0.230839,8.5e-4 0.302735,0.002 0.05192,8e-4 0.05733,10e-4 0.05078,0 1.085493,0.15018 1.530597,0.97137 1.613281,1.46094 0.123248,0.77786 -0.159688,1.49753 -0.417968,1.81054 -0.249703,0.30262 -0.739774,0.51916 -1.142579,0.48633 -0.35057,-0.0285 -0.697323,-0.27882 -1.083984,-0.92578 -0.229422,-0.38387 -0.119141,-1.2793 -0.119141,-1.2793 a 0.750075,0.750075 0 1 0 -1.46289,-0.33203 c 0,0 -0.378122,1.25471 0.294922,2.38086 0.515806,0.86304 1.257287,1.56973 2.248046,1.65039 0.938524,0.0765 1.840899,-0.31893 2.423829,-1.02539 0.57381,-0.6954 0.937463,-1.77726 0.740234,-3.00586 v -0.004 -0.002 c -0.185031,-1.10295 -1.124582,-2.46233 -2.894531,-2.70312 l -0.01172,-0.002 h -0.01172 c -0.141969,-0.0149 -0.123471,-0.009 -0.203125,-0.01 -0.07965,-10e-4 -0.18601,-10e-4 -0.316406,-0.002 -0.260792,-0.002 -0.618224,-0.003 -1.041016,-0.004 -0.845584,-0.002 -1.950666,-0.003 -3.048828,-0.002 z"
         id="path872"
         inkscape:connector-curvature="0" />
      <path
         style="color:#000000;font-style:normal;font-variant:normal;font-weight:normal;font-stretch:normal;font-size:medium;line-height:normal;font-family:sans-serif;font-variant-ligatures:normal;font-variant-position:normal;font-variant-caps:normal;font-variant-numeric:normal;font-variant-alternates:normal;font-feature-settings:normal;text-indent:0;text-align:start;text-decoration:none;text-decoration-line:none;text-decoration-style:solid;text-decoration-color:#000000;letter-spacing:normal;word-spacing:normal;text-transform:none;writing-mode:lr-tb;direction:ltr;text-orientation:mixed;dominant-baseline:auto;baseline-shift:baseline;text-anchor:start;white-space:normal;shape-padding:0;clip-rule:nonzero;display:inline;overflow:visible;visibility:visible;opacity:1;isolation:auto;mix-blend-mode:normal;color-interpolation:sRGB;color-interpolation-filters:linearRGB;solid-color:#000000;solid-opacity:1;vector-effect:none;fill:#000000;fill-opacity:1;fill-rule:evenodd;stroke:none;stroke-width:1.5;stroke-linecap:round;stroke-linejoin:miter;stroke-miterlimit:4;stroke-dasharray:none;stroke-dashoffset:0;stroke-opacity:1;color-rendering:auto;image-rendering:auto;shape-rendering:auto;text-rendering:auto;enable-background:accumulate"
         d="m 8.0410156,288.29102 c -0.7624237,0.007 -1.4414062,0.0215 -1.4414062,0.0215 a 0.75014304,0.75014304 0 1 0 0.029297,1.5 c 0,0 0.673407,-0.0147 1.4257813,-0.0215 0.7523743,-0.007 1.6346671,10e-4 1.8515625,0.0195 0.3188768,0.027 0.6902578,0.33567 0.7109378,0.54297 0.02256,0.22611 -0.0064,0.31366 -0.05078,0.39257 -0.04434,0.0789 -0.137422,0.18312 -0.363281,0.31641 -0.171032,0.10093 -0.6191404,-0.0312 -0.6191404,-0.0312 A 0.750075,0.750075 0 1 0 8.9375,292.38477 c 0,0 1.0141215,0.56669 2.027344,-0.0312 0.366268,-0.21616 0.696051,-0.49207 0.910156,-0.87305 0.214105,-0.38099 0.278599,-0.83207 0.234375,-1.27539 -0.112887,-1.13159 -1.095278,-1.80761 -2.076172,-1.89063 -0.4329895,-0.0366 -1.2297636,-0.0303 -1.9921874,-0.0234 z"
         id="path874"
         inkscape:connector-curvature="0" />
    </g>
  </g>
</svg>
