<?xml version="1.0" encoding="UTF-8" standalone="no"?>
<svg
   xmlns:dc="http://purl.org/dc/elements/1.1/"
   xmlns:cc="http://creativecommons.org/ns#"
   xmlns:rdf="http://www.w3.org/1999/02/22-rdf-syntax-ns#"
   xmlns:svg="http://www.w3.org/2000/svg"
   xmlns="http://www.w3.org/2000/svg"
   id="svg8"
   version="1.1"
   viewBox="0 0 26.458333 26.458332"
   height="100"
   width="100">
  <defs
     id="defs2" />
  <metadata
     id="metadata5">
    <rdf:RDF>
      <cc:Work
         rdf:about="">
        <dc:format>image/svg+xml</dc:format>
        <dc:type
           rdf:resource="http://purl.org/dc/dcmitype/StillImage" />
        <dc:title></dc:title>
      </cc:Work>
    </rdf:RDF>
  </metadata>
  <g
     style="display:inline"
     transform="translate(0,-270.54166)"
     id="layer1">
    <path
       id="path3715"
       d="m 1.3229166,294.35417 c 3.9687498,-7.05556 7.9374996,-14.11111 11.9062494,-21.16667 3.96875,7.05556 7.937499,14.11111 11.906249,21.16667 -7.937499,0 -15.8749989,0 -23.8124984,0 z"
       style="fill:none;fill-rule:evenodd;stroke:#000000;stroke-width:1.32291663;stroke-linecap:butt;stroke-linejoin:miter;stroke-miterlimit:4;stroke-dasharray:none;stroke-opacity:1" />
    <path
       id="path4616"
       d="m 16.079428,283.80575 c 0.586698,0.68827 0.324846,1.7971 0.320874,2.61954 -0.004,0.82245 -0.288546,2.99846 -0.727374,2.9829 -0.419698,-0.0149 -0.905011,-2.79658 -1.530331,-2.70969 -0.625321,0.0869 -0.745826,6.31401 -1.373542,6.36048 -0.627715,0.0465 -1.292318,-6.39322 -1.836448,-6.34917 -0.544129,0.0441 -0.346479,1.90368 -0.78507,1.87106 -0.4090776,-0.0304 -0.9102537,-1.62081 -1.0460339,-2.4439 -0.1357801,-0.82309 -0.1641959,-1.88858 0.1666855,-2.29982 1.2306074,-0.63717 6.2778714,-0.49852 6.8112394,-0.0314 z"
       style="fill:#000000;fill-opacity:1;fill-rule:evenodd;stroke:#000000;stroke-width:0;stroke-linecap:butt;stroke-linejoin:miter;stroke-miterlimit:4;stroke-dasharray:none;stroke-opacity:1" />
    <rect
       transform="matrix(-0.01005367,0.99994946,-0.99991636,-0.01293318,0,0)"
       y="-20.752426"
       x="284.36118"
       height="9.647089"
       width="1.555753"
       id="rect819"
       style="fill:#000000;fill-opacity:1;stroke-width:1.13027143;stroke-miterlimit:4;stroke-dasharray:none" />
  </g>
</svg>
